<svg width="32" height="32" viewBox="0 0 32 32" fill="none" xmlns="http://www.w3.org/2000/svg">
<path d="M16 0.166626C13.9207 0.166626 11.8618 0.576167 9.94085 1.37187C8.01986 2.16757 6.27441 3.33384 4.80415 4.8041C1.83482 7.77343 0.166672 11.8007 0.166672 16C0.166672 22.9983 4.71084 28.9358 10.9967 31.0416C11.7883 31.1683 12.0417 30.6775 12.0417 30.25V27.5741C7.65584 28.5241 6.72167 25.4525 6.72167 25.4525C5.99334 23.6158 4.96417 23.125 4.96417 23.125C3.52334 22.1433 5.07501 22.175 5.07501 22.175C6.65834 22.2858 7.49751 23.8058 7.49751 23.8058C8.87501 26.2125 11.2025 25.5 12.105 25.12C12.2475 24.0908 12.6592 23.3941 13.1025 22.9983C9.58751 22.6025 5.89834 21.2408 5.89834 15.2083C5.89834 13.4508 6.50001 12.0416 7.52917 10.9175C7.37084 10.5216 6.81667 8.87496 7.68751 6.73746C7.68751 6.73746 9.01751 6.30996 12.0417 8.35246C13.2925 8.00413 14.6542 7.82996 16 7.82996C17.3458 7.82996 18.7075 8.00413 19.9583 8.35246C22.9825 6.30996 24.3125 6.73746 24.3125 6.73746C25.1833 8.87496 24.6292 10.5216 24.4708 10.9175C25.5 12.0416 26.1017 13.4508 26.1017 15.2083C26.1017 21.2566 22.3967 22.5866 18.8658 22.9825C19.4358 23.4733 19.9583 24.4391 19.9583 25.9116V30.25C19.9583 30.6775 20.2117 31.1841 21.0192 31.0416C27.305 28.92 31.8333 22.9983 31.8333 16C31.8333 13.9207 31.4238 11.8618 30.6281 9.9408C29.8324 8.01982 28.6661 6.27436 27.1959 4.8041C25.7256 3.33384 23.9801 2.16757 22.0592 1.37187C20.1382 0.576167 18.0793 0.166626 16 0.166626Z" fill="#0300A7"/>
</svg>
