<svg width="32" height="32" viewBox="0 0 32 32" fill="none" xmlns="http://www.w3.org/2000/svg">
<path d="M16 0.166626C7.26001 0.166626 0.166672 7.25996 0.166672 16C0.166672 24.74 7.26001 31.8333 16 31.8333C24.74 31.8333 31.8333 24.74 31.8333 16C31.8333 7.25996 24.74 0.166626 16 0.166626ZM23.3467 10.9333C23.1092 13.435 22.08 19.515 21.5575 22.3175C21.3358 23.505 20.8925 23.9008 20.4808 23.9483C19.5625 24.0275 18.8658 23.3466 17.9792 22.7608C16.5858 21.8425 15.7942 21.2725 14.4483 20.3858C12.8808 19.3566 13.8942 18.7866 14.7967 17.8683C15.0342 17.6308 19.0875 13.9416 19.1667 13.6091C19.1777 13.5588 19.1762 13.5065 19.1624 13.4568C19.1486 13.4071 19.1229 13.3616 19.0875 13.3241C18.9925 13.245 18.8658 13.2766 18.755 13.2925C18.6125 13.3241 16.3958 14.7966 12.0733 17.71C11.44 18.1375 10.87 18.3591 10.3633 18.3433C9.79334 18.3275 8.71667 18.0266 7.90917 17.7575C6.91167 17.4408 6.13584 17.2666 6.19917 16.7125C6.23084 16.4275 6.62667 16.1425 7.37084 15.8416C11.9942 13.8308 15.0658 12.5008 16.6017 11.8675C21.0033 10.0308 21.9058 9.71413 22.5075 9.71413C22.6342 9.71413 22.935 9.74579 23.125 9.90413C23.2833 10.0308 23.3308 10.205 23.3467 10.3316C23.3308 10.4266 23.3625 10.7116 23.3467 10.9333Z" fill="#0300A7"/>
</svg>
